<svg fill="#000" height="800" width="800" version="1.1" id="Layer_1" xmlns="http://www.w3.org/2000/svg" viewBox="0 0 512 512" xml:space="preserve"><path d="m392.09 122.767 15.446-24.272c6.858-10.778 3.681-25.076-7.097-31.935-10.777-6.86-25.076-3.681-31.935 7.099l-15.409 24.215a216.682 216.682 0 0 0-73.962-21.58V46.265h1.448c12.775 0 23.133-10.357 23.133-23.133S293.356 0 280.581 0h-49.163c-12.775 0-23.133 10.357-23.133 23.133s10.357 23.133 23.133 23.133h1.45v30.029C123.239 87.885 37.535 180.886 37.535 293.535 37.535 413.997 135.538 512 256 512s218.465-98.003 218.465-218.465c0-69.048-32.206-130.705-82.375-170.768zM256 465.735c-94.951 0-172.2-77.249-172.2-172.2s77.249-172.2 172.2-172.2 172.2 77.249 172.2 172.2-77.249 172.2-172.2 172.2z"/><path d="M333.172 205.084c-9.623-8.397-24.238-7.407-32.638 2.222l-61.964 71.02c-8.399 9.626-7.404 24.24 2.222 32.638 9.626 8.399 24.24 7.404 32.638-2.222l61.964-71.02c8.4-9.626 7.404-24.238-2.222-32.638z"/></svg>